# xmcd
#
# Track frame offsets:
#       150
#       29617
#       76569
#       108607
#       139096
#       163934
#       189838
#       212105
#       225115
#
# Disc length: 4105 seconds
#
# Revision: 0
# Processed by: cddbd v1.5.2PL0 Copyright (c) Steve Scherf et al.
# Submitted via: WaveLab 6.10
#
DISCID=6b100709
DTITLE=Klangforschung - Feuer and Feuer
DYEAR=1999
DGENRE=TECHNO
TTITLE0=Cocamidopropyl
TTITLE1=Fade Resistant
TTITLE2=Zirtakiaffe
TTITLE3=Feuer and Feuer
TTITLE4=Batain
TTITLE5=Event Horizon
TTITLE6=Pianodreams
TTITLE7=Tehalit
TTITLE8=Mindmaschine
EXTD=
EXTT0=
EXTT1=
EXTT2=
EXTT3=
EXTT4=
EXTT5=
EXTT6=
EXTT7=
EXTT8=
PLAYORDER=
